<svg width="22" height="25" viewBox="0 0 22 25" fill="none" xmlns="http://www.w3.org/2000/svg">
<path d="M12.9875 23.25C11.65 21.2875 10.25 18.7 10.25 16.375C10.25 14.0875 11.45 12 13.25 10.75H12.75V8.25H15.25V9.7875C15.875 9.6125 16.5 9.5 17.125 9.5C17.3375 9.5 17.55 9.5 17.75 9.5375V0.75H0.25V23.25H7.75V18.875H10.25V23.25H12.9875ZM12.75 3.25H15.25V5.75H12.75V3.25ZM5.25 20.75H2.75V18.25H5.25V20.75ZM5.25 15.75H2.75V13.25H5.25V15.75ZM5.25 10.75H2.75V8.25H5.25V10.75ZM5.25 5.75H2.75V3.25H5.25V5.75ZM7.75 3.25H10.25V5.75H7.75V3.25ZM7.75 8.25H10.25V10.75H7.75V8.25ZM7.75 15.75V13.25H10.25V15.75H7.75ZM17.125 12C14.75 12 12.75 14.0125 12.75 16.375C12.75 19.6375 17.125 24.5 17.125 24.5C17.125 24.5 21.5 19.6375 21.5 16.375C21.5 14.0125 19.5 12 17.125 12ZM17.125 18.0125C16.25 18.0125 15.625 17.2625 15.625 16.5125C15.625 15.6375 16.375 15.0125 17.125 15.0125C17.875 15.0125 18.625 15.75 18.625 16.5125C18.75 17.2625 18 18.0125 17.125 18.0125Z" fill="black"/>
</svg>
