<svg width="30" height="30" viewBox="0 0 30 30" fill="none" xmlns="http://www.w3.org/2000/svg">
<path d="M18.9875 26.25C17.65 24.2875 16.25 21.7 16.25 19.375C16.25 17.0875 17.45 15 19.25 13.75H18.75V11.25H21.25V12.7875C21.875 12.6125 22.5 12.5 23.125 12.5C23.3375 12.5 23.55 12.5 23.75 12.5375V3.75H6.25V26.25H13.75V21.875H16.25V26.25H18.9875ZM18.75 6.25H21.25V8.75H18.75V6.25ZM11.25 23.75H8.75V21.25H11.25V23.75ZM11.25 18.75H8.75V16.25H11.25V18.75ZM11.25 13.75H8.75V11.25H11.25V13.75ZM11.25 8.75H8.75V6.25H11.25V8.75ZM13.75 6.25H16.25V8.75H13.75V6.25ZM13.75 11.25H16.25V13.75H13.75V11.25ZM13.75 18.75V16.25H16.25V18.75H13.75ZM23.125 15C20.75 15 18.75 17.0125 18.75 19.375C18.75 22.6375 23.125 27.5 23.125 27.5C23.125 27.5 27.5 22.6375 27.5 19.375C27.5 17.0125 25.5 15 23.125 15ZM23.125 21.0125C22.25 21.0125 21.625 20.2625 21.625 19.5125C21.625 18.6375 22.375 18.0125 23.125 18.0125C23.875 18.0125 24.625 18.75 24.625 19.5125C24.75 20.2625 24 21.0125 23.125 21.0125Z" fill="black"/>
</svg>
