<svg width="33" height="33" viewBox="0 0 33 33" fill="none" xmlns="http://www.w3.org/2000/svg">
<path d="M24.75 20.625H22V23.375H24.75M24.75 15.125H22V17.875H24.75M27.5 26.125H16.5V23.375H19.25V20.625H16.5V17.875H19.25V15.125H16.5V12.375H27.5M13.75 9.625H11V6.875H13.75M13.75 15.125H11V12.375H13.75M13.75 20.625H11V17.875H13.75M13.75 26.125H11V23.375H13.75M8.25 9.625H5.5V6.875H8.25M8.25 15.125H5.5V12.375H8.25M8.25 20.625H5.5V17.875H8.25M8.25 26.125H5.5V23.375H8.25M16.5 9.625V4.125H2.75V28.875H30.25V9.625H16.5Z" fill="black"/>
</svg>
